<?xml version="1.0" standalone="no"?>
<!DOCTYPE svg PUBLIC "-//W3C//DTD SVG 1.0//EN" "http://www.w3.org/TR/2001/REC-SVG-20010904/DTD/svg10.dtd">
<svg xmlns="http://www.w3.org/2000/svg" xmlns:xlink="http://www.w3.org/1999/xlink" id="body_1" width="1024" height="768">

<g transform="matrix(1.5 0 0 1.5 128.00003 -0)">
    <path d="M299.245 308.861L334.72998 284.417L344.869 166.5C 344.869 144.66 327.164 126.955 305.32397 126.955L305.32397 126.955L294.06097 126.955C 283.46497 126.955 274.87497 118.366005 274.87497 107.769L274.87497 107.769L274.87497 81.73L237.12297 81.73L237.12297 107.768005C 237.12297 118.364006 228.53397 126.95401 217.93697 126.95401L217.93697 126.95401L206.67397 126.95401C 184.83397 126.95401 167.12897 144.65901 167.12897 166.49901L167.12897 166.49901L177.26797 284.41602L207.95998 308.441L299.245 308.861z" stroke="none" fill="#EEBF00" fill-rule="nonzero" />
    <path d="M305.324 126.954L294.061 126.954C 283.465 126.954 274.875 118.364 274.875 107.768005L274.875 107.768005L274.875 81.73L258.54102 81.73L258.54102 107.768005C 258.54102 118.364006 267.131 126.95401 277.72702 126.95401L277.72702 126.95401L288.99002 126.95401C 310.83102 126.95401 328.53503 144.65901 328.53503 166.49901L328.53503 166.49901L318.39603 284.41602L283.01804 308.786L299.24503 308.86002L334.73004 284.41602L344.86905 166.49902C 344.869 144.659 327.165 126.954 305.324 126.954z" stroke="none" fill="#663C1D" fill-rule="nonzero" fill-opacity="0.13725491" />
    <path d="M302.794 185.23L302.794 271.542L285.778 450.439L221.466 450.439L204.449 271.542L204.449 185.23L302.794 185.23" stroke="none" fill="#DDB200" fill-rule="nonzero" />
    <path d="M287.409 185.23L287.409 256.338L270.393 435.236L219.839 435.236L221.284 450.439L285.597 450.439L302.613 271.542L302.613 185.23L287.409 185.23" stroke="none" fill="#663C1D" fill-rule="nonzero" fill-opacity="0.13725491" />
    <path d="M184.097 477.417L323.148 477.417L323.148 504.396L184.097 504.396z" stroke="none" fill="#3E3B43" fill-rule="nonzero" />
    <path d="M204.445 450.438L302.79 450.438L302.79 477.417L204.445 477.417z" stroke="none" fill="#494949" fill-rule="nonzero" />
    <path d="M237.122 75.462L274.858 75.462L274.858 104.75L237.122 104.75z" stroke="none" fill="#663C1D" fill-rule="nonzero" fill-opacity="0.26666668" />
    <path d="M279.845 86.402L269.952 93.459C 261.604 99.414 250.397 99.414 242.049 93.459L242.049 93.459L232.15599 86.402C 226.82098 82.596 223.65498 76.448 223.65498 69.894L223.65498 69.894L223.65498 28.473C 223.65498 16.946999 232.99799 7.6049995 244.52298 7.6049995L244.52298 7.6049995L267.47998 7.6049995C 279.00598 7.6049995 288.348 16.948 288.348 28.473L288.348 28.473L288.348 69.894C 288.346 76.447 285.18 82.596 279.845 86.402z" stroke="none" fill="#EEBF00" fill-rule="nonzero" />
    <path d="M275.97 9.422C 277.129 12.018 277.788 14.887 277.788 17.914L277.788 17.914L277.788 59.335C 277.788 65.888 274.622 72.037 269.287 75.843L269.287 75.843L259.39398 82.9C 251.04599 88.855 239.83899 88.855 231.48999 82.9L231.48999 82.9L225.71399 78.78C 227.17499 81.776 229.36499 84.410995 232.15599 86.402L232.15599 86.402L242.049 93.459C 250.397 99.414 261.604 99.414 269.952 93.459L269.952 93.459L279.845 86.402C 285.18 82.597 288.346 76.448 288.346 69.894L288.346 69.894L288.346 28.473C 288.346 19.975 283.259 12.676 275.97 9.422z" stroke="none" fill="#663C1D" fill-rule="nonzero" fill-opacity="0.09803922" />
    <path d="M304.821 164.162L302.794 193.909L266.993 193.909L253.621 188.749L238.525 193.909L204.449 193.909L202.421 164.162L304.821 164.162" stroke="none" fill="#CCA400" fill-rule="nonzero" />
    <path d="M305.324 119.351L294.062 119.351C 287.67502 119.351 282.479 114.155 282.479 107.768L282.479 107.768L282.479 93.863L284.26 92.593C 291.58002 87.373 295.95 78.886 295.95 69.895004L295.95 69.895004L295.95 28.473C 295.95 12.774 283.179 0 267.478 0L267.478 0L244.521 0C 228.821 0 216.048 12.774 216.048 28.473L216.048 28.473L216.048 69.893C 216.048 78.883995 220.419 87.368996 227.738 92.590996L227.738 92.590996L229.51901 93.86099L229.51901 107.76499C 229.51901 114.15199 224.32301 119.34799 217.93701 119.34799L217.93701 119.34799L206.67601 119.34799C 180.67801 119.34799 159.52701 140.49799 159.52701 166.497C 159.52701 166.715 159.53601 166.93199 159.554 167.14899L159.554 167.14899L169.693 285.06598C 169.866 287.07297 170.829 288.93198 172.37 290.22998L172.37 290.22998L200.875 314.24597L213.105 442.83298L204.45099 442.83298C 200.25099 442.83298 196.84698 446.23697 196.84698 450.43698L196.84698 450.43698L196.84698 469.81198L184.09698 469.81198C 179.89699 469.81198 176.49298 473.21597 176.49298 477.416L176.49298 477.416L176.49298 504.395C 176.49298 508.595 179.89699 511.999 184.09698 511.999L184.09698 511.999L323.149 511.999C 327.349 511.999 330.753 508.595 330.753 504.395L330.753 504.395L330.753 477.417C 330.753 473.21698 327.349 469.813 323.149 469.813L323.149 469.813L310.399 469.813L310.399 450.438C 310.399 446.23798 306.995 442.83398 302.79498 442.83398L302.79498 442.83398L294.141 442.83398L306.337 314.61L339.22302 290.55197C 340.99503 289.25598 342.12103 287.25497 342.30902 285.067L342.30902 285.067L352.44803 167.15C 352.46704 166.933 352.47504 166.71599 352.47504 166.498C 352.473 140.501 331.323 119.351 305.324 119.351zM231.257 28.473C 231.257 21.157999 237.207 15.207999 244.522 15.207999L244.522 15.207999L267.479 15.207999C 274.793 15.207999 280.743 21.157999 280.743 28.473L280.743 28.473L280.743 69.893C 280.743 73.979996 278.75702 77.838 275.42902 80.211L275.42902 80.211L265.536 87.268C 259.83002 91.339 252.167 91.337 246.46301 87.268L246.46301 87.268L236.57 80.211C 233.244 77.837 231.25601 73.979996 231.25601 69.893L231.25601 69.893L231.257 28.473zM315.544 496.792L191.699 496.792L191.699 485.022L204.449 485.022L302.794 485.022L315.544 485.022L315.544 496.792zM295.19 469.814L212.05301 469.814L212.05301 458.043L221.43501 458.043C 221.44202 458.043 221.44902 458.044 221.45601 458.044C 221.463 458.044 221.46901 458.043 221.47601 458.043L221.47601 458.043L285.76602 458.043C 285.773 458.043 285.77902 458.044 285.786 458.044C 285.793 458.044 285.80002 458.043 285.807 458.043L285.807 458.043L295.189 458.043L295.19 469.814zM261.225 442.834L261.225 293.022C 261.225 288.822 257.821 285.418 253.621 285.418C 249.421 285.418 246.017 288.822 246.017 293.022L246.017 293.022L246.017 442.83398L228.379 442.83398L212.053 271.18L212.053 201.51099L238.52399 201.51099C 239.35999 201.51099 240.19199 201.37299 240.984 201.10199L240.984 201.10199L253.465 196.83699L264.257 201.00099C 265.12997 201.338 266.05798 201.51099 266.994 201.51099L266.994 201.51099L295.192 201.51099L295.192 271.18L278.865 442.83398L261.225 442.83398zM327.451 280.319L308.262 294.357L310.36398 272.26C 310.386 272.022 310.39798 271.78 310.39798 271.54L310.39798 271.54L310.39798 194.164L312.40698 164.679C 312.693 160.49 309.52798 156.86101 305.33698 156.576C 301.15598 156.287 297.51898 159.455 297.23398 163.64601L297.23398 163.64601L295.68997 186.30602L268.41 186.30602L256.359 181.65501C 254.69101 181.01201 252.85301 180.97502 251.162 181.55402L251.162 181.55402L237.261 186.30602L211.55301 186.30602L210.009 163.64601C 209.724 159.45601 206.059 156.283 201.906 156.576C 197.716 156.86101 194.55 160.49 194.836 164.679L194.836 164.679L196.845 194.164L196.845 271.54102C 196.845 271.781 196.857 272.023 196.879 272.26102L196.879 272.26102L198.816 292.62802L184.57399 280.62802L174.734 166.18802C 174.901 148.71902 189.164 134.55801 206.674 134.55801L206.674 134.55801L217.93599 134.55801C 232.708 134.55801 244.72598 122.540016 244.72598 107.76701L244.72598 107.76701L244.72598 103.43501C 248.35298 104.819016 252.17299 105.528015 255.99799 105.528015C 259.823 105.528015 263.64297 104.819016 267.26898 103.43601L267.26898 103.43601L267.26898 107.76701C 267.26898 122.53902 279.287 134.55801 294.06 134.55801L294.06 134.55801L305.322 134.55801C 322.831 134.55801 337.094 148.72002 337.262 166.18901L337.262 166.18901L327.451 280.319z" stroke="none" fill="#000000" fill-rule="nonzero" />
	<g>
	</g>
	<g>
	</g>
	<g>
	</g>
	<g>
	</g>
	<g>
	</g>
	<g>
	</g>
	<g>
	</g>
	<g>
	</g>
	<g>
	</g>
	<g>
	</g>
	<g>
	</g>
	<g>
	</g>
	<g>
	</g>
	<g>
	</g>
	<g>
	</g>
</g>
</svg>